<svg xmlns="http://www.w3.org/2000/svg" viewBox="0 0 162.01 20"><g id="Layer_2" data-name="Layer 2"><g id="Layer_1-2" data-name="Layer 1"><g id="Layer_2-2" data-name="Layer 2"><g id="Layer_1-2-2" data-name="Layer 1-2"><path d="M6.74,20V10.88H9.8l.46-3.56H6.74V5.05C6.74,4,7,3.32,8.5,3.32h1.89V.14A25.2,25.2,0,0,0,7.64,0C4.93,0,3.07,1.66,3.07,4.7V7.32H0v3.56H3.07V20Z" style="fill:#fff"/><path d="M84,3.16a9,9,0,0,1-2.6.7,4.46,4.46,0,0,0,2-2.51,8.65,8.65,0,0,1-2.87,1.11,4.51,4.51,0,0,0-6.37-.25A4.43,4.43,0,0,0,73.1,3.68a4.58,4.58,0,0,0-.27,2.92,13,13,0,0,1-5.15-1.38,12.86,12.86,0,0,1-4.14-3.37,4.62,4.62,0,0,0-.61,2.29,4.67,4.67,0,0,0,.53,2.14,4.46,4.46,0,0,0,1.48,1.63,4.47,4.47,0,0,1-2-.56V7.4a4.57,4.57,0,0,0,1,2.86,4.46,4.46,0,0,0,2.6,1.56A4,4,0,0,1,65.3,12a6.09,6.09,0,0,1-.85-.07,4.48,4.48,0,0,0,1.61,2.24,4.57,4.57,0,0,0,2.61.9A9,9,0,0,1,63.1,17,6.73,6.73,0,0,1,62,17a12.65,12.65,0,0,0,6.92,2,12.52,12.52,0,0,0,4.94-.95,12.61,12.61,0,0,0,4.19-2.79A12.8,12.8,0,0,0,81.8,6.09V5.5A9.41,9.41,0,0,0,84,3.16Z" style="fill:#fff"/><path d="M162,7.34a9.76,9.76,0,0,0-1.07-4.8,3.54,3.54,0,0,0-2-1.17A96.83,96.83,0,0,0,149,1a95.26,95.26,0,0,0-9.85.35,3.51,3.51,0,0,0-1.72.86c-1.07,1-1.18,2.62-1.3,4a55.8,55.8,0,0,0,0,7.54,10.76,10.76,0,0,0,.35,2.33,3.78,3.78,0,0,0,.84,1.58,3.51,3.51,0,0,0,1.76.91,54.73,54.73,0,0,0,7.68.38c4.13.06,7.76,0,12-.33a3.39,3.39,0,0,0,1.81-.9,2.91,2.91,0,0,0,.72-1.17,11.79,11.79,0,0,0,.62-4C162,12,162,8,162,7.34Zm-15.66,6V6.12l7,3.62c-2,1.07-4.56,2.26-7,3.59Z" style="fill:#fff"/></g></g></g></g></svg>