<svg xmlns="http://www.w3.org/2000/svg" viewBox="0 0 49 61"><g id="Layer_2" data-name="Layer 2"><g id="Layer_1-2" data-name="Layer 1"><g id="Layer_2-2" data-name="Layer 2"><g id="Layer_1-2-2" data-name="Layer 1-2"><path d="M27.56,36.6H15.31a3,3,0,1,0,0,6H27.56a3.05,3.05,0,0,0,0-6.1h0ZM39.81,6.1H36.2A9.2,9.2,0,0,0,27.56,0H21.44A9.2,9.2,0,0,0,12.8,6.1H9.19A9.18,9.18,0,0,0,0,15.25H0v36.6A9.18,9.18,0,0,0,9.19,61H39.81A9.18,9.18,0,0,0,49,51.85h0V15.25A9.18,9.18,0,0,0,39.81,6.1ZM18.38,9.15A3,3,0,0,1,21.33,6.1h6.23a3.06,3.06,0,0,1,3.07,3.05h0v3H18.38Zm24.5,42.7a3.06,3.06,0,0,1-3.07,3H9.19a3,3,0,0,1-3.06-2.94V15.25A3.06,3.06,0,0,1,7,13.09a3.1,3.1,0,0,1,2.17-.89h3.06v3.05a3,3,0,0,0,.9,2.16,3.06,3.06,0,0,0,2.16.89h18.4a3.06,3.06,0,0,0,2.16-.89,3,3,0,0,0,.9-2.16V12.2h3.06a3.06,3.06,0,0,1,3.07,3.05h0ZM33.69,24.4H15.31a3.06,3.06,0,0,0-3.06,3.05,3,3,0,0,0,.9,2.16,3.06,3.06,0,0,0,2.16.89H33.69a3.06,3.06,0,0,0,2.16-.89,3,3,0,0,0,.08-4.24l-.08-.08A3.06,3.06,0,0,0,33.69,24.4Z" style="fill:#fff"/></g></g></g></g></svg>