<svg xmlns="http://www.w3.org/2000/svg" viewBox="0 0 140 48.19"><g id="Layer_2" data-name="Layer 2"><g id="Layer_1-2" data-name="Layer 1"><path d="M0,16.06V25a23,23,0,0,1,8.85,1.77,23,23,0,0,1,7.5,5,23.19,23.19,0,0,1,5,7.53,23.31,23.31,0,0,1,1.75,8.88H32a32.24,32.24,0,0,0-9.38-22.71A32,32,0,0,0,0,16.06Z" style="fill:#ff3342"/><path d="M44.4,0H30.33A57.25,57.25,0,0,1,48,17.73V3.6A3.6,3.6,0,0,0,44.4,0Z" style="fill:#ff3342"/><path d="M8.84,0H0V8A40,40,0,0,1,28.27,19.81,40.31,40.31,0,0,1,40,48.19h8V39.32A49.23,49.23,0,0,0,34.48,13.56,48.81,48.81,0,0,0,8.84,0Z" style="fill:#ff3342"/><path d="M69.75,5.3H64.11V33.83h5.64Z" style="fill:#ff3342"/><path d="M90.47,17.66a9.77,9.77,0,0,0-3.23-1.94,11.86,11.86,0,0,0-7.93,0,9.77,9.77,0,0,0-3.23,1.94,9.08,9.08,0,0,0-2.16,3,10.32,10.32,0,0,0,0,7.92,9.12,9.12,0,0,0,2.16,3.05,9.67,9.67,0,0,0,3.23,1.94,12,12,0,0,0,7.93,0,9.77,9.77,0,0,0,3.23-1.94,9.37,9.37,0,0,0,2.16-3.05,10.44,10.44,0,0,0,0-7.92A9.22,9.22,0,0,0,90.47,17.66ZM86.6,28A5,5,0,0,1,80,28a5.34,5.34,0,0,1,0-6.72,5,5,0,0,1,6.65,0,5.37,5.37,0,0,1,0,6.72Z" style="fill:#ff3342"/><path d="M110.7,17.91h-.07a5.74,5.74,0,0,0-.9-1,6.3,6.3,0,0,0-1.36-.93,8.45,8.45,0,0,0-4-.94,7.43,7.43,0,0,0-3.49.81A8.16,8.16,0,0,0,98.29,18,9.89,9.89,0,0,0,96.63,21a11.24,11.24,0,0,0-.58,3.55,10.92,10.92,0,0,0,.64,3.8,8.67,8.67,0,0,0,1.81,3,8.18,8.18,0,0,0,2.84,2,9.32,9.32,0,0,0,3.69.7,7.5,7.5,0,0,0,2.72-.55,5.36,5.36,0,0,0,2.42-1.86h.08v1.77a4.49,4.49,0,0,1-.29,1.74,4.62,4.62,0,0,1-.93,1.49,5,5,0,0,1-1.78,1,5.23,5.23,0,0,1-2,.25,7.69,7.69,0,0,1-3.17-.65,11.45,11.45,0,0,1-2.76-1.73L96.16,40.2a10.78,10.78,0,0,0,4.36,2.13,21,21,0,0,0,4.81.55q5.33,0,7.94-2.7c1.74-1.79,2.61-4.43,2.61-7.9V15.49H110.7Zm-.34,8.35a4.38,4.38,0,0,1-1,1.44,5.1,5.1,0,0,1-1.44,1,4.36,4.36,0,0,1-3.56,0,5.07,5.07,0,0,1-1.42-1,4.73,4.73,0,0,1-1-1.45,4.57,4.57,0,0,1,0-3.41,4.57,4.57,0,0,1,1-1.44,4.69,4.69,0,0,1,1.42-1,4.36,4.36,0,0,1,3.56,0,4.9,4.9,0,0,1,1.44,1,4.49,4.49,0,0,1,1,4.86Z" style="fill:#ff3342"/><path d="M137.05,17.66a9.77,9.77,0,0,0-3.23-1.94,11.86,11.86,0,0,0-7.93,0,9.77,9.77,0,0,0-3.23,1.94,9.22,9.22,0,0,0-2.16,3,10.32,10.32,0,0,0,0,7.92,9.12,9.12,0,0,0,2.16,3.05,9.77,9.77,0,0,0,3.23,1.94,12,12,0,0,0,7.93,0,9.67,9.67,0,0,0,3.23-1.94,9.12,9.12,0,0,0,2.16-3.05,10.32,10.32,0,0,0,0-7.92A9.08,9.08,0,0,0,137.05,17.66ZM133.18,28a5,5,0,0,1-6.65,0,5.37,5.37,0,0,1,0-6.72,5,5,0,0,1,6.65,0,5.34,5.34,0,0,1,0,6.72Z" style="fill:#ff3342"/></g></g></svg>